<?xml version="1.0" encoding="UTF-8"?>
<!DOCTYPE svg PUBLIC "-//W3C//DTD SVG 1.1//EN" "http://www.w3.org/Graphics/SVG/1.1/DTD/svg11.dtd">
<!-- Creator: CorelDRAW 2019 (64-Bit) -->
<svg xmlns="http://www.w3.org/2000/svg" xml:space="preserve" width="190.545mm" height="69.0773mm" version="1.1" style="shape-rendering:geometricPrecision; text-rendering:geometricPrecision; image-rendering:optimizeQuality; fill-rule:evenodd; clip-rule:evenodd"
viewBox="0 0 190.8198 69.177"
 xmlns:xlink="http://www.w3.org/1999/xlink"
 xmlns:xodm="http://www.corel.com/coreldraw/odm/2003">
 <defs>
  <style type="text/css">
   <![CDATA[
    .fil0 {fill:#8B1111}
   ]]>
  </style>
 </defs>
 <g id="Layer_x0020_1">
  <metadata id="CorelCorpID_0Corel-Layer"/>
  <g id="_730327296">
   <path class="fil0" d="M24.4152 6.0034c-0.218,1.4383 -0.5089,2.9089 -0.7608,4.385 -0.2518,1.475 -0.462,2.9612 -0.8162,4.3573 -0.4911,0.007 -0.9536,-0.0146 -1.3969,-0.0554 -0.408,-1.702 -1.3073,-2.8011 -2.3654,-3.8593 -0.372,-0.372 -0.8176,-0.7472 -1.2866,-1.0513 -0.7618,-0.4941 -1.6778,-0.9443 -2.7803,-1.0928 -0.9787,-0.1317 -1.9252,0.0151 -2.7113,0.2905 -0.7836,0.2744 -1.4098,0.6827 -1.8812,1.2311 -0.4844,0.5635 -0.7982,1.3095 -0.8437,2.2686 -0.1004,2.1081 1.3463,2.8027 2.9326,3.2784 1.621,0.4858 3.1375,0.9821 4.7584,1.4661 1.6292,0.4867 2.9852,1.103 4.2741,1.9366 0.6284,0.4062 1.2458,0.8145 1.8121,1.2866 1.1439,0.953 2.1745,1.9869 2.9603,3.2506 0.4054,0.652 0.7235,1.378 0.9267,2.1856 0.216,0.857 0.2541,1.8364 0.1385,2.8079 -0.2129,1.7886 -0.7018,3.4721 -1.3833,4.8276 -0.1776,0.3533 -0.3332,0.7094 -0.5257,1.0376 -0.9453,1.6117 -2.2155,2.9718 -3.7349,4.0252 -0.6075,0.4211 -1.2305,0.8334 -1.9228,1.1757 -0.348,0.1722 -0.6905,0.3564 -1.0511,0.5118 -2.5025,1.0784 -5.4124,1.8814 -8.9913,1.8813 -0.9699,0 -1.9181,-0.1258 -2.8081,-0.3044 -0.8687,-0.1743 -1.7125,-0.3781 -2.5175,-0.5809 -0.8541,-0.2151 -1.8782,-0.392 -2.6974,-0.1107 -0.6974,0.2395 -1.2223,0.7345 -1.6598,1.245 -0.0236,0.0276 -0.028,0.0925 -0.083,0.083 0.0711,-4.9961 0.1671,-9.8508 0.2351,-14.8286 0.3479,-0.0278 0.8574,-0.0078 1.2725,-0.0139 0.192,1.514 0.6379,2.7752 1.1896,3.9147 0.5463,1.1283 1.2796,2.1233 2.1303,2.974 0.837,0.837 1.7952,1.6107 3.0155,2.0887 0.6125,0.2398 1.3138,0.4191 2.0887,0.4704 0.7574,0.0499 1.5674,-0.0116 2.3653,-0.1522 2.872,-0.5058 4.6292,-2.3256 4.5787,-5.6298 -0.0385,-2.5212 -1.3829,-3.6814 -3.1124,-4.551 -0.2828,-0.1422 -0.5886,-0.2575 -0.8852,-0.3873 -0.294,-0.1287 -0.579,-0.2777 -0.8715,-0.4012 -1.1863,-0.5007 -2.4558,-0.9489 -3.7487,-1.3557 -0.6349,-0.1997 -1.2741,-0.4375 -1.8674,-0.6916 -0.6006,-0.2571 -1.1669,-0.5599 -1.6461,-0.8992 -1.0047,-0.711 -1.718,-1.6817 -2.1856,-2.9187 -0.2295,-0.6065 -0.4072,-1.3542 -0.4427,-2.1163 -0.0374,-0.803 0.0145,-1.593 0.1107,-2.407 0.1782,-1.5091 0.5343,-2.8793 1.0237,-4.0806 0.3664,-0.8997 0.8225,-1.7375 1.3694,-2.4622 0.5438,-0.7202 1.1697,-1.3575 1.9366,-1.895 0.4987,-0.3497 1.0344,-0.6843 1.6184,-0.9267 1.2053,-0.5007 2.5854,-0.8245 4.1912,-0.8991 2.1771,-0.1013 4.2422,0.175 6.0587,0.5117 0.901,0.167 1.7965,0.412 2.9048,0.3596 0.9875,-0.0467 1.9974,-0.1259 3.0847,-0.1799z"/>
   <path class="fil0" d="M133.748 15.9767c-0.0247,0.0628 -0.1105,0.0444 -0.165,0.0553 -0.1574,0.0309 -0.3708,0.0677 -0.5543,0.0969 -0.7349,-2.0772 -1.8328,-3.7394 -3.444,-4.9521 -1.1395,-0.8579 -2.7774,-1.6116 -4.7862,-1.3695 -0.6001,0.0725 -1.1331,0.2358 -1.6323,0.4565 -1.8944,0.8373 -2.9997,2.5971 -3.6793,4.717 -0.6561,2.0467 -0.8998,4.8773 -0.5673,7.511 0.1539,1.2187 0.4288,2.3708 0.7885,3.4168 0.359,1.0445 0.7988,1.9894 1.3556,2.8357 0.5459,0.8298 1.1913,1.5655 2.0749,2.1164 0.807,0.5031 2.0329,0.9781 3.3476,0.7054 1.1936,-0.2476 1.8045,-0.9635 2.0194,-2.1856 0.1067,-0.6058 0.1108,-1.2863 0.1108,-1.992 0,-1.3738 0,-2.7662 0,-4.1912 0,-0.704 0.0179,-1.4009 -0.0555,-2.0057 -0.1492,-1.2366 -0.6985,-2.1029 -2.0472,-2.144 0,-0.3459 0,-0.6917 0,-1.0376 3.6844,0.0092 7.4048,-0.0183 11.0667,0.0139 0,0.3412 0,0.6824 0,1.0237 -1.4271,0.0468 -2.0034,1.017 -2.1452,2.4068 -0.069,0.6841 -0.0272,1.4526 -0.0272,2.227 0,1.5663 0,2.9827 0,4.551 0,0.7665 -0.0182,1.5298 0.0272,2.241 0.0481,0.7461 0.0963,1.4 0.3877,1.895 0.2939,0.5001 0.7662,0.7092 1.3009,0.9682 0,0.3412 0,0.6825 0,1.0237 -2.8098,-0.0255 -5.509,-0.0137 -8.2722,-0.0138 -2.8074,-0.0003 -5.5194,0.0871 -7.8155,-0.4426 -1.141,-0.2635 -2.1313,-0.6238 -3.0432,-1.1067 -1.774,-0.9396 -3.1347,-2.362 -4.2327,-4.0528 -0.3902,-0.6012 -0.7596,-1.3236 -1.0791,-2.0334 -0.1095,-0.2432 -0.2374,-0.482 -0.3042,-0.7192 -0.0547,-0.1945 -0.0277,-0.4873 -0.0277,-0.7609 -0.0006,-3.8998 -0.0021,-7.7171 0,-11.6333 0,-0.0871 0.0818,-0.2272 0.1384,-0.3458 0.7361,-1.5457 1.7515,-2.8432 2.9878,-3.8593 1.3257,-1.0896 2.9988,-1.8887 4.966,-2.3378 1.891,-0.4316 4.5716,-0.4831 6.7089,-0.1798 0.5157,0.0732 1.0207,0.1928 1.5215,0.3042 0.5037,0.1122 1.0022,0.2411 1.5083,0.3182 0.6204,0.0948 1.0952,0.0407 1.5349,-0.1799 0.4149,-0.2077 0.7377,-0.5244 0.9549,-0.9129 0.0117,-0.0025 0.0129,0.0053 0.0129,0.0139 0.3629,3.1794 0.7103,6.372 1.0653,9.5583z"/>
   <path class="fil0" d="M158.0243 16.129c-0.2472,0.0987 -0.5072,0.1836 -0.7467,0.2904 -0.3928,-1.4848 -1.0445,-2.7859 -1.9499,-3.8316 -0.8925,-1.0294 -2.0384,-1.8478 -3.5005,-2.2686 -0.7558,-0.2177 -1.7327,-0.3057 -2.6134,-0.2491 -0.8859,0.057 -1.6105,0.2985 -2.0202,0.8576 -0.4228,0.5774 -0.4983,1.4223 -0.4983,2.393 0,0.9258 -0.0013,1.8863 0,2.8496 1.5013,-0.048 3.1155,0.1554 4.1783,-0.2904 1.0549,-0.4435 1.4426,-1.4998 1.4244,-3.0295 0.2265,-0.0501 0.4567,-0.0968 0.7051,-0.1245 0.4904,3.4847 1.007,6.943 1.5078,10.4159 -0.2211,0.0364 -0.4516,0.0643 -0.6909,0.083 -0.2418,-0.7205 -0.5423,-1.3872 -0.9001,-1.9781 -0.3538,-0.5861 -0.7779,-1.1283 -1.3139,-1.5492 -0.5477,-0.4306 -1.241,-0.7026 -2.0878,-0.7885 -0.8663,-0.0875 -1.7952,0.0065 -2.8084,-0.0275 -0.0247,2.6754 -0.0144,5.492 -0.0144,8.1889 0,1.4114 -0.0103,2.7337 0.54,3.5549 0.5554,0.8288 1.6233,1.0387 3.0841,1.0099 2.5614,-0.0508 4.3188,-1.234 5.6444,-2.5591 1.3802,-1.3812 2.3129,-3.1524 3.1258,-5.0628 0.2486,0.1024 0.4957,0.2053 0.7194,0.3321 -0.9679,3.5466 -1.9344,7.0944 -2.9191,10.6234 -0.0247,0.0466 -0.0781,-0.0486 -0.1105,-0.083 -0.1016,-0.111 -0.2368,-0.2414 -0.3877,-0.3182 -0.2459,-0.1263 -0.6231,-0.1887 -0.9821,-0.2074 -1.115,-0.0584 -2.4171,-0.0138 -3.5267,-0.0138 -4.6895,-0.0003 -9.5819,0.0001 -14.1505,0 0,-0.3412 0,-0.6824 0,-1.0237 1.1538,0.0332 1.5401,-0.8459 1.7289,-1.812 0.1951,-0.9981 0.165,-2.1866 0.165,-3.3476 0,-4.7243 0,-9.4145 0,-14.1507 0,-1.1583 0.0353,-2.3678 -0.0961,-3.4167 -0.147,-1.1716 -0.5205,-2.25 -1.7978,-2.227 0,-0.3412 0,-0.6824 0,-1.0236 4.6986,0 9.6066,0 14.399,0 0.7856,0 1.6104,0.0371 2.3377,0 0.7921,-0.0404 1.3241,-0.1704 1.7574,-0.6087 0.0091,-0.01 0.0194,-0.0516 0.0417,-0.0276 0.5919,3.1334 1.1707,6.28 1.756,9.4201z"/>
   <path class="fil0" d="M25.0239 7.3452c6.074,0.0006 12.2808,0.0023 18.3558,0 0.4181,2.344 0.8121,4.7117 1.2036,7.0822 -0.23,0 -0.5439,0 -0.8162,0 -0.0884,0 -0.2094,0.02 -0.2629,0 -0.0563,-0.0209 -0.1767,-0.2777 -0.2351,-0.3873 -1.0832,-2.0239 -2.6567,-3.4829 -5.5607,-3.6933 -0.0406,6.3333 0.0003,12.8942 0,19.269 0,1.0505 0.1399,2.0242 0.5396,2.6835 0.4141,0.6835 1.1373,1.0134 2.1717,1.0374 0,0.3367 0,0.6732 0,1.0099 -4.1038,0 -8.4013,0 -12.5047,0 0,-0.3412 0,-0.6824 0,-1.0237 1.0475,-0.0035 1.7832,-0.3504 2.1855,-1.0374 0.3906,-0.667 0.5201,-1.6448 0.5257,-2.6836 0.0338,-6.3743 -0.037,-12.9171 0.0138,-19.2551 -3.1989,0.1348 -4.8651,1.8022 -5.9204,4.0806 -0.3275,-0.0089 -0.6913,0.0182 -0.9959,-0.0137 0.4311,-2.3356 0.8451,-4.688 1.2725,-7.027 -0.0005,-0.0236 0.0104,-0.0358 0.0278,-0.0415z"/>
   <path class="fil0" d="M75.0427 20.5138c2.1111,0.057 3.4638,0.9658 4.6615,1.9228 0.0322,0.0257 0.1085,0.0969 0.1108,0.0553 -0.8786,-3.2161 -1.728,-6.4611 -2.6145,-9.6689 -0.7146,2.5686 -1.4432,5.1224 -2.1578,7.6909zm-18.4944 -2.8632l0 0c0.8522,-0.5786 1.6254,-1.3681 2.0611,-2.3516 0.2192,-0.4936 0.3904,-1.1174 0.4288,-1.7706 0.0423,-0.7088 -0.0588,-1.3765 -0.2904,-1.909 -0.4369,-1.0039 -1.3572,-1.6336 -2.8494,-1.5631 -0.4456,0.021 -0.907,0.1099 -1.2725,0.249 -0.3384,0.1287 -0.6987,0.3519 -0.8577,0.6224 -0.2499,0.4247 -0.2352,1.1996 -0.2352,1.8399 0,2.0717 0,4.2825 0,6.2661 1.1088,-0.3213 2.1329,-0.7838 3.0154,-1.3832zm-11.9237 -10.3054l0 0c4.7149,0 9.4328,0 14.1924,0 2.3168,0 4.7198,-0.04 6.0586,0.9958 0.4443,0.3436 0.8019,0.7616 1.065,1.3004 0.2871,0.5864 0.4013,1.1777 0.4013,1.9642 0,0.7323 -0.1482,1.3913 -0.3596,1.9919 -0.814,2.3125 -2.6098,3.728 -4.5095,4.9382 0.0046,0.0773 0.083,0.1183 0.1246,0.166 0.7031,0.8138 1.3567,1.7341 1.9503,2.6835 1.2593,2.0139 2.3072,4.3043 3.1262,6.778 0.4081,1.233 0.6595,2.5687 1.2312,3.7211 0.5475,-0.7857 0.8822,-1.7266 1.2173,-2.6836 0.3349,-0.9568 0.6309,-1.9592 0.9545,-2.9462 0.6379,-1.9477 1.2545,-3.9655 1.8812,-5.9204 0.6241,-1.9473 1.2542,-3.9271 1.8812,-5.9203 0.31,-0.9849 0.5786,-1.9417 0.9406,-2.9603 0.1568,-0.4414 0.3447,-0.9658 0.4565,-1.4939 0.1631,-0.7712 0.0433,-1.4822 -0.6777,-1.5908 0.0092,-0.3367 -0.0186,-0.7101 0.0136,-1.0236 3.3477,0 6.6952,0 10.0425,0 -0.009,0.3413 0.0186,0.719 -0.0137,1.0374 -0.6581,0.0623 -0.8727,0.6171 -0.747,1.2311 0.1141,0.5578 0.2812,1.102 0.415,1.6046 0.8455,3.1747 1.7607,6.3546 2.656,9.4615 0.5982,2.0769 1.1884,4.2186 1.7844,6.3077 0.2974,1.0429 0.5959,2.1199 0.899,3.14 0.2993,1.0046 0.6697,1.9896 1.3694,2.6696 0.501,-0.641 0.6139,-1.6216 0.6642,-2.6559 0.0507,-1.0411 0.0138,-2.1993 0.0138,-3.2919 -0.0005,-4.429 0.0005,-8.7837 0,-13.2518 0,-1.0602 0.0298,-2.1945 -0.1246,-3.1815 -0.1727,-1.1057 -0.5192,-2.0499 -1.743,-2.0473 -0.0505,-0.0413 -0.0274,-0.1463 -0.0274,-0.2351 0,-0.2432 0,-0.5339 0,-0.7884 4.3848,0.0092 8.8066,-0.0185 13.1684,0.0137 0,0.2685 0,0.6791 0,0.9546 0,0.0882 -0.1297,0.1034 -0.2073,0.1383 -0.4985,0.2231 -0.8214,0.7039 -0.6364,1.4248 0.1084,0.4229 0.3897,0.9024 0.6087,1.2312 0.2495,0.3743 0.5309,0.7088 0.7746,1.0649 1.2208,1.7856 2.5332,3.7427 3.7349,5.464 0.0005,-1.8299 0.0051,-3.8253 -0.0139,-5.6713 -0.0091,-0.8867 -0.1349,-1.7818 -0.4149,-2.4347 -0.2796,-0.6523 -0.7782,-1.1857 -1.6738,-1.1619 0,-0.3412 0,-0.6824 0,-1.0236 2.31,0 4.6202,0 6.9301,0 0,0.3412 0,0.6824 0,1.0236 -1.1803,-0.0187 -1.5595,0.8606 -1.7429,1.8536 -0.1838,0.9969 -0.1521,2.2344 -0.1521,3.4166 -0.0005,4.8084 0.0007,9.5494 0,14.3722 0,1.1708 -0.0398,2.4396 0.1521,3.4444 0.1873,0.9812 0.5805,1.8458 1.7429,1.8397 0,0.3366 0,0.6732 0,1.0099 -2.2455,0.0092 -4.6476,-0.0185 -6.9163,0.0137 -0.0322,-0.295 -0.0046,-0.6501 -0.0138,-0.9682 0.0496,-0.0678 0.1452,-0.0532 0.2075,-0.0692 1.069,-0.2772 1.6137,-1.1557 1.5354,-2.559 -0.0733,-1.3175 -0.5729,-2.3777 -1.1483,-3.2369 -0.5808,-0.868 -1.2392,-1.6941 -1.8535,-2.5453 -3.0547,-4.233 -6.1859,-8.5009 -9.2538,-12.6983 0,4.7416 0,9.568 0,14.3582 0,0.9648 -0.0417,1.95 0,2.8634 0.0409,0.9045 0.0674,1.8348 0.2903,2.5729 0.2178,0.7205 0.6191,1.3198 1.5769,1.2864 0,0.3413 0,0.6825 0,1.0237 -5.3669,0 -10.9276,0 -16.2947,0 0,-0.3367 0,-0.6732 0,-1.0099 1.3729,-0.1635 2.0593,-1.302 1.8674,-2.9187 -0.1586,-1.3353 -0.8749,-2.4378 -1.5493,-3.2783 -0.7049,-0.8786 -1.5849,-1.64 -2.6004,-2.227 -1.0293,-0.5951 -2.3015,-0.9953 -3.9008,-0.8992 -0.4697,1.6055 -1.0155,3.2672 -1.4524,4.9521 -0.1008,0.3881 -0.2156,0.8399 -0.3043,1.3003 -0.0911,0.4715 -0.1632,0.9649 -0.1384,1.4386 0.0514,0.9785 0.5655,1.5116 1.577,1.6184 0,0.3413 0,0.6825 0,1.0237 -5.0812,0.0092 -10.3191,-0.0184 -15.4233,0.0138 -0.0121,-0.0061 -0.0248,-0.0121 -0.0277,-0.0276 0,-0.3366 0,-0.6733 0,-1.0099 0.7844,-0.0266 1.2397,-0.273 1.3695,-0.8991 0.1273,-0.6147 -0.0445,-1.3971 -0.2077,-1.9503 -0.3404,-1.1555 -0.8522,-2.2302 -1.3141,-3.2093 -0.4801,-1.0183 -1.025,-1.992 -1.5767,-2.9462 -0.5568,-0.9633 -1.1138,-1.9123 -1.7568,-2.7665 -0.3946,0.1631 -0.7885,0.3273 -1.1896,0.484 0,2.145 0.0001,4.4087 0,6.5982 0,1.0774 0.0048,2.2041 0.2076,3.0847 0.1995,0.8664 0.6175,1.645 1.6874,1.6045 -0.009,0.3414 0.0182,0.7191 -0.0137,1.0375 -3.5641,-0.023 -7.2254,-0.023 -10.7896,0 -0.0321,-0.3183 -0.0046,-0.6962 -0.0139,-1.0375 1.1822,0.0204 1.552,-0.866 1.7292,-1.8673 0.1775,-1.0024 0.166,-2.2612 0.166,-3.4305 -0.0002,-4.8088 0.0002,-9.5491 0,-14.3721 -0.0002,-1.1692 0.0167,-2.4272 -0.166,-3.4305 -0.1806,-0.9916 -0.5577,-1.8685 -1.7292,-1.8536 0,-0.3273 0,-0.6546 0,-0.9821 -0.0012,-0.0196 -0.0022,-0.0392 0.0139,-0.0415z"/>
   <path class="fil0" d="M174.2366 20.4723c1.0811,-0.7367 2.0293,-1.6996 2.5861,-2.9462 0.2771,-0.6196 0.5021,-1.3934 0.5399,-2.2271 0.0403,-0.8753 -0.0611,-1.7148 -0.3461,-2.3932 -0.5295,-1.2627 -1.6935,-2.0792 -3.5408,-1.9918 -1.0329,0.0488 -2.2232,0.3848 -2.6421,1.0374 -0.3563,0.5553 -0.3603,1.4638 -0.3603,2.3515 0,2.6158 0,5.3802 0,7.9124 1.3842,-0.3793 2.659,-0.9911 3.7633,-1.743zm16.5832 21.0393l0 0c-4.5601,-0.0001 -9.3423,0.0003 -13.9554,0 -0.1665,0 -0.3877,0.0264 -0.4567,0 -0.0559,-0.0219 -0.0468,0.022 -0.0689,-0.0553 -0.0233,-0.0815 0,-0.1837 0,-0.2766 0,-0.234 -0.0352,-0.7169 0,-0.8715 0.0168,-0.0743 -0.0182,-0.0694 0.0272,-0.0968 0.0105,-0.0059 0.0652,-0.0091 0.0834,-0.0139 0.1105,-0.0278 0.2198,-0.0127 0.3186,-0.0276 0.7402,-0.1123 1.1552,-0.4223 1.2866,-1.162 0.1445,-0.8168 -0.0793,-1.7172 -0.2914,-2.4345 -0.2094,-0.7158 -0.4592,-1.4038 -0.7323,-2.061 -0.2745,-0.6616 -0.5893,-1.2912 -0.886,-1.9227 -1.0471,-2.2323 -2.2386,-4.2906 -3.5266,-6.2662 -0.1898,-0.2899 -0.3629,-0.5865 -0.567,-0.8438 -0.0547,-0.0688 -0.0574,-0.0887 -0.1249,-0.083 -0.0013,0.0002 -0.0665,0.0289 -0.0962,0.0416 -0.1913,0.0805 -0.4046,0.1731 -0.6231,0.2628 -0.2121,0.0871 -0.4542,0.1566 -0.6361,0.2629 -0.0457,0.0262 -0.0677,0.0179 -0.0834,0.0415 -0.0493,0.0729 -0.0143,0.2393 -0.0143,0.3734 0,2.6465 0,5.244 0,7.8294 0,1.4539 -0.0026,2.7772 0.2499,3.9284 0.2459,1.1223 0.748,2.0945 2.1022,2.0749 0.0558,0.033 0.0246,0.0241 0.0272,0.0553 0.0285,0.2749 0.022,0.8266 0,1.1204 -0.0066,0.0968 0,0.1005 -0.0404,0.1245 -0.0365,0.0207 -0.2601,0 -0.415,0 -4.3695,-0.0001 -8.7768,0.0003 -13.0865,0 0.0091,-0.4287 -0.0182,-0.8944 0.0143,-1.3002 1.4687,0.013 1.9383,-1.103 2.1581,-2.3516 0.2238,-1.27 0.1926,-2.8489 0.1926,-4.3295 0,-6.0543 0.0014,-12.0254 0,-18.0653 0,-1.4838 0.0391,-3.0285 -0.1926,-4.2882 -0.2327,-1.264 -0.653,-2.3921 -2.145,-2.3792 -0.0482,0.0052 -0.026,-0.0381 -0.0274,-0.0553 -0.0104,-0.1023 0,-0.347 0,-0.5948 0,-0.229 -0.0298,-0.4594 0,-0.6087 0.0156,-0.0723 0.0781,-0.0344 0.125,-0.0416 0.2159,-0.0326 0.4813,0 0.7325,0 5.6729,0 11.2574,0 16.9044,0 2.4741,0 4.9003,-0.0184 6.6252,0.6916 0.3486,0.1434 0.636,0.3207 0.9273,0.5396 1.102,0.8299 1.8798,2.1197 1.881,3.9976 0,0.905 -0.1391,1.7446 -0.4005,2.5453 -0.4788,1.4631 -1.3204,2.5924 -2.2687,3.6103 -0.9887,1.0596 -2.1985,1.9598 -3.4316,2.7112 0.0064,0.0575 0.0612,0.1074 0.1118,0.166 2.1582,2.5308 3.9208,5.6274 5.2971,8.9635 0.6829,1.6538 1.3229,3.51 1.799,5.3392 0.2342,0.9067 0.5347,1.8131 0.9822,2.5868 0.4458,0.7722 1.1228,1.5389 2.2244,1.563l0 1.3003z"/>
   <path class="fil0" d="M134.2463 50.1847c-0.2537,0.0222 -0.471,0.083 -0.7194,0.1108 -0.731,-2.0825 -1.8314,-3.7384 -3.4443,-4.9522 -0.7758,-0.5837 -1.7371,-1.0891 -2.9048,-1.3002 -1.2121,-0.2191 -2.5844,-0.0675 -3.5688,0.4011 -1.8593,0.8852 -2.9626,2.625 -3.6379,4.7585 -0.6622,2.0926 -0.8982,4.9226 -0.5397,7.4697 0.3459,2.4576 1.0035,4.5493 2.1443,6.2523 0.5568,0.8311 1.1934,1.5706 2.0885,2.1165 0.4047,0.2467 0.8981,0.4991 1.4663,0.6363 0.5678,0.1365 1.2457,0.2051 1.8814,0.0691 1.1745,-0.2513 1.7844,-0.9856 1.9917,-2.2132 0.1955,-1.1551 0.1108,-2.5867 0.1108,-4.0529 0,-0.6675 0,-1.3925 0,-2.1026 0,-0.7172 0.0167,-1.4207 -0.0553,-2.0333 -0.1482,-1.2588 -0.7286,-2.072 -2.0472,-2.1442 0.0092,-0.3366 -0.0186,-0.7098 0.0137,-1.0236 3.6798,0.0093 7.3964,-0.0183 11.053,0.0139 0,0.3412 0,0.6824 0,1.0236 -1.4259,0.0528 -2.0046,1.028 -2.1451,2.4206 -0.0689,0.6821 -0.0273,1.45 -0.0273,2.2272 0,0.7688 0,1.5498 0,2.2685 0,1.4929 -0.0404,3.0911 0.0273,4.5233 0.0352,0.7239 0.0975,1.4212 0.3877,1.8951 0.3016,0.4933 0.7765,0.7031 1.3137,0.9544 0,0.3366 0,0.6732 0,1.0098 -3.3964,0.026 -6.7891,0.0133 -10.1943,0.0139 -0.6847,0 -1.3608,0.0149 -2.0195,-0.0139 -1.3038,-0.0571 -2.5333,-0.1648 -3.6797,-0.4011 -3.9582,-0.8156 -6.3709,-3.0974 -8.0642,-6.2248 -0.1966,-0.3636 -0.3995,-0.7826 -0.5811,-1.2033 -0.042,-0.0985 -0.0724,-0.1303 -0.0828,-0.2629 -0.0416,-0.5222 0,-1.0818 0,-1.6323 -0.0006,-3.5231 0.0006,-7.0223 0,-10.5959 0,-0.2717 -0.0381,-0.5658 0,-0.8023 0.0248,-0.1538 0.2115,-0.4621 0.2903,-0.6086 0.7251,-1.3492 1.7418,-2.4826 2.8913,-3.3752 1.3629,-1.0584 2.9924,-1.8149 4.9382,-2.227 1.8759,-0.3975 4.5428,-0.4264 6.6118,-0.1108 0.5124,0.0782 1.0093,0.1755 1.508,0.2905 0.4864,0.1123 0.9752,0.2517 1.4657,0.3182 0.5984,0.0809 1.0992,0.0183 1.5075,-0.1937 0.415,-0.2143 0.7194,-0.532 0.955,-0.899 0.3641,3.182 0.7298,6.4361 1.0653,9.5997z"/>
   <path class="fil0" d="M148.9913 69.177c-0.4046,0 -0.8105,0 -1.2163,0 -0.4149,-0.0213 -0.843,-0.0531 -1.245,-0.0968 -1.1836,-0.1286 -2.2308,-0.336 -3.3066,-0.5949 -0.3292,-0.0795 -0.6843,-0.1653 -1.0655,-0.2351 -0.3472,-0.0634 -0.7753,-0.1337 -1.1889,-0.083 -0.7272,0.0888 -1.1316,0.4997 -1.5349,0.8991 -0.0949,0.0928 -0.0352,0.0692 -0.0561,0.0277 -0.0194,-0.0393 -0.0194,-0.2075 -0.0272,-0.3458 -0.2302,-3.6357 -0.4774,-7.3094 -0.7194,-10.8725 -0.0026,-0.037 -0.0078,-0.0888 0,-0.1245 0.0222,-0.1014 0.0222,-0.0577 0.069,-0.083 0.0325,-0.0172 0.1145,-0.0196 0.1664,-0.0277 0.1874,-0.0304 0.3293,-0.0438 0.5112,-0.0829 0,0.0138 0.0104,0.0164 0.0144,0.0276 0.4111,2.8294 1.6325,5.0725 3.3743,6.5567 1.2841,1.0934 3.0922,1.9314 5.5468,1.7153 2.2401,-0.1971 3.8024,-1.1735 4.0808,-3.2645 0.1067,-0.7989 0.0234,-1.5821 -0.2628,-2.1025 -0.5724,-1.0438 -1.7692,-1.5136 -2.9464,-1.9504 -0.5984,-0.2224 -1.1901,-0.4697 -1.756,-0.6916 -2.3351,-0.9157 -4.9095,-1.6762 -6.391,-3.4028 -0.7455,-0.8692 -1.3034,-1.9492 -1.5493,-3.3476 -0.1314,-0.7497 -0.1301,-1.5394 -0.069,-2.2962 0.181,-2.2438 0.964,-3.9887 2.1022,-5.2425 1.146,-1.2607 2.7955,-2.1727 4.8001,-2.5453 0.6972,-0.1297 1.4439,-0.1522 2.2687,-0.1522 1.4712,0 3.0218,0.2567 4.3291,0.5672 0.3187,0.0755 0.6542,0.1528 0.9963,0.2214 0.367,0.0735 0.7182,0.0835 1.0928,0 0.6349,-0.1413 1.0901,-0.4446 1.4388,-0.8439 0.0065,-0.0082 0.0311,-0.0858 0.069,-0.0415 0.2185,2.388 0.5294,5.1881 0.7609,7.6494 0.0351,0.3659 0.0975,0.728 0.1107,1.0789 0.0038,0.0908 0.031,0.1491 -0.0418,0.166 -0.0975,0.0231 -0.2029,0.0327 -0.3317,0.0554 -0.1093,0.0193 -0.3266,0.0577 -0.3317,0.0553 -0.0246,-0.0107 -0.0337,-0.0663 -0.0417,-0.0829 -0.0533,-0.1213 -0.0806,-0.2561 -0.1248,-0.3735 -0.047,-0.1234 -0.1003,-0.2439 -0.1523,-0.3596 -0.7167,-1.601 -1.8147,-2.9628 -3.2221,-3.8732 -0.3864,-0.2492 -0.8612,-0.4944 -1.3568,-0.6639 -0.4943,-0.1696 -1.098,-0.3074 -1.7562,-0.2767 -0.6113,0.0284 -1.1732,0.1606 -1.6597,0.3596 -0.9446,0.3862 -1.7004,1.0581 -1.9098,2.1441 -0.1131,0.5915 -0.0585,1.2467 0.1809,1.7428 0.4318,0.899 1.3555,1.3845 2.3103,1.743 0.9795,0.3682 1.989,0.7078 2.9866,1.065 1.0029,0.3591 2.0319,0.6667 2.9609,1.1067 1.3501,0.6397 2.5378,1.5489 3.3886,2.6836 0.5736,0.7646 1.0433,1.7002 1.2865,2.7665 0.1301,0.5682 0.1665,1.1648 0.1665,1.8674 0,1.2702 -0.2185,2.4715 -0.5671,3.4858 -1.3854,4.0328 -4.9783,5.8915 -10.1817,6.0726z"/>
   <path class="fil0" d="M31.4423 41.5116c6.0782,-0.0002 12.2902,0.002 18.3696,0 0.4114,2.3461 0.7995,4.7152 1.2033,7.0685 -0.2343,0 -0.5535,0 -0.8298,0 -0.089,0 -0.2088,0.0203 -0.2628,0 -0.0765,-0.0285 -0.1539,-0.2739 -0.2214,-0.4012 -1.0704,-2.0182 -2.7,-3.4515 -5.5744,-3.6794 -0.0004,5.849 0.0001,11.7967 0,17.6919 -0.0002,1.6052 -0.0576,3.2662 0.5394,4.2744 0.3993,0.6738 1.155,1.0104 2.1855,1.0236 0,0.3412 0,0.6825 0,1.0236 -4.1727,0 -8.3457,0 -12.5184,0 0,-0.3411 0,-0.6824 0,-1.0236 1.0457,-0.0046 1.7889,-0.3677 2.1857,-1.0375 0.4075,-0.6881 0.475,-1.6137 0.5256,-2.6835 0.048,-1.0139 0.0139,-2.1077 0.0139,-3.1954 0,-5.3304 0,-10.7507 0,-16.0597 -2.3679,0.0682 -3.9234,1.0718 -4.9936,2.4899 -0.3605,0.4775 -0.6554,1.0104 -0.9269,1.5769 -0.3273,0 -0.6546,0 -0.982,0 0.4115,-2.3504 0.8482,-4.6755 1.2587,-7.0269 0.0119,-0.0112 0.0083,-0.0379 0.0278,-0.0416z"/>
   <path class="fil0" d="M51.5549 41.5116c3.6566,0 7.3128,0 10.9692,0 0,0.3366 0,0.6732 0,1.0099 -0.0195,0.0397 -0.0714,0.0118 -0.0968,0.0138 -0.6063,0.0466 -1.0127,0.2784 -1.2864,0.6779 -0.8387,1.2235 -0.5926,3.6231 -0.6365,5.6299 2.2549,0.0322 4.5695,0.0045 6.8473,0.0137 -0.0173,-1.3314 0.064,-2.8609 -0.1244,-4.0668 -0.1869,-1.1934 -0.5764,-2.2492 -1.909,-2.2548 0,-0.3412 0,-0.6824 0,-1.0237 3.6655,0 7.3314,0 10.9969,0 0,0.3413 0,0.6825 0,1.0237 -1.1278,-0.036 -1.5446,0.8249 -1.7291,1.8258 -0.1832,0.9977 -0.1659,2.2496 -0.1659,3.4305 0.0005,4.8211 0,9.5708 0,14.3998 0,1.1631 -0.0375,2.4409 0.152,3.4444 0.1863,0.985 0.5511,1.8876 1.743,1.8536 -0.0092,0.3412 0.0184,0.7192 -0.0139,1.0375 -3.6608,0 -7.3219,0 -10.9829,0 0,-0.3459 0,-0.6917 0,-1.0375 1.4392,-0.0132 1.8092,-1.2092 1.9503,-2.5452 0.1395,-1.3193 0.083,-2.9689 0.083,-4.3988 0.0006,-2.9882 -0.0006,-6.0371 0,-8.9773 -2.2825,0 -4.5647,0 -6.8473,0 0,3.6928 0,7.48 0,11.2183 0,0.7625 -0.005,1.5037 0.0694,2.1717 0.1462,1.317 0.5222,2.5175 1.9503,2.5313 0,0.2836 0,0.7539 0,1.0375 -3.6611,0 -7.3221,0 -10.9831,0 0,-0.3459 0,-0.6917 0,-1.0375 1.1546,0.0375 1.5417,-0.8483 1.7291,-1.812 0.1924,-0.9891 0.1659,-2.2133 0.1659,-3.3614 0.0001,-4.7109 0,-9.3868 0,-14.1092 0,-1.1416 0.035,-2.3823 -0.0968,-3.4304 -0.1486,-1.1836 -0.5434,-2.2759 -1.7982,-2.2409 0,-0.3274 0,-0.6547 0,-0.9821 -0.0012,-0.0196 -0.0023,-0.0392 0.0139,-0.0416z"/>
   <path class="fil0" d="M78.0443 41.5116c3.6058,0.0093 7.2482,-0.0184 10.831,0.0139 0,0.3274 0,0.6547 0,0.982 -0.0041,0.0518 -0.0762,0.0252 -0.0968,0.0277 -0.18,0.0218 -0.4483,0.0591 -0.6225,0.1383 -0.5949,0.2709 -0.8686,0.9478 -1.0098,1.6875 -0.1908,1.0004 -0.1659,2.2626 -0.1659,3.4305 0,4.8178 0,9.5675 0,14.3998 0,1.1666 -0.0179,2.4306 0.1659,3.4305 0.184,0.9988 0.5385,1.8939 1.7291,1.8674 0,0.3458 0,0.6916 0,1.0375 -3.615,0 -7.2299,0 -10.8449,0 0,-0.3459 0,-0.6917 0,-1.0375 1.1927,0.0265 1.5454,-0.8692 1.7291,-1.8674 0.1846,-1.0011 0.1659,-2.2703 0.1659,-3.4305 -0.0005,-4.8099 0.0007,-9.5552 0,-14.3859 0,-1.1728 0.0244,-2.4237 -0.1659,-3.4304 -0.1849,-0.9802 -0.5901,-1.8679 -1.7291,-1.8398 0,-0.3274 0,-0.6547 0,-0.9821 -0.001,-0.0196 -0.0021,-0.0392 0.0139,-0.0416z"/>
   <path class="fil0" d="M90.4936 41.5116c4.385,0 8.77,0 13.155,0 0,0.3413 0,0.6825 0,1.0237 -0.6317,0.1718 -1.0629,0.725 -0.8299,1.5493 0.2605,0.9225 0.8978,1.572 1.3832,2.2823 1.2293,1.798 2.5049,3.7041 3.7209,5.4361 -0.0698,-1.8101 0.0451,-3.8136 -0.0137,-5.6851 -0.0276,-0.8901 -0.1435,-1.7633 -0.4288,-2.4208 -0.2843,-0.6552 -0.763,-1.1841 -1.6598,-1.1619 0,-0.3412 0,-0.6824 0,-1.0237 2.3052,0 4.6106,0 6.9162,0 0,0.3413 0,0.6825 0,1.0237 -1.2592,-0.0317 -1.6236,1.032 -1.7845,2.2409 -0.1365,1.0274 -0.1105,2.2779 -0.1105,3.4165 0.0005,4.708 0,9.3844 0,14.1094 0,1.1481 -0.0088,2.3768 0.1798,3.3475 0.1914,0.9832 0.5739,1.8212 1.7152,1.812 0,0.3412 0,0.6824 0,1.0236 -2.3055,0 -4.6109,0 -6.9162,0 0,-0.3228 0,-0.6455 0,-0.9683 0.0545,-0.0616 0.1387,-0.0513 0.2072,-0.0691 1.0854,-0.2853 1.5903,-1.1493 1.5356,-2.5591 -0.0514,-1.3169 -0.5942,-2.3751 -1.162,-3.2229 -0.5844,-0.8727 -1.2218,-1.7095 -1.8398,-2.5591 -3.0702,-4.2204 -6.1815,-8.503 -9.2539,-12.6984 -0.0008,5.6865 0.0004,11.4921 0,17.2217 0,0.9026 0.0638,1.8616 0.2903,2.5867 0.2289,0.7314 0.6341,1.2997 1.577,1.2864 -0.0092,0.3366 0.0184,0.7101 -0.0138,1.0237 -2.2224,-0.0093 -4.4817,0.0184 -6.6811,-0.0139 0,-0.3411 0,-0.6824 0,-1.0236 1.1632,0.0387 1.5424,-0.8397 1.7291,-1.812 0.1886,-0.981 0.1659,-2.2098 0.1659,-3.3614 0,-4.7109 0,-9.3866 0,-14.1092 0,-1.1336 0.0416,-2.4005 -0.0966,-3.4304 -0.1603,-1.1926 -0.4958,-2.2575 -1.7984,-2.2409 0,-0.3274 0,-0.6547 0,-0.9821 -0.0012,-0.0196 -0.0021,-0.0392 0.0137,-0.0416z"/>
   <polygon class="fil0" points="0.2605,2.8634 186.8928,2.8634 186.8928,0 0.2605,0 "/>
   <polygon class="fil0" points="159.3251,48.2287 190.8198,48.2287 190.8198,45.3653 159.3251,45.3653 "/>
   <polygon class="fil0" points="-0,48.2287 27.6724,48.2287 27.6724,45.3653 -0,45.3653 "/>
  </g>
 </g>
</svg>
